<svg height="512pt" viewBox="0 0 512 512" width="512pt" xmlns="http://www.w3.org/2000/svg"><path d="m473.21875 162.347656c-25.011719-25.007812-58.261719-38.78125-93.628906-38.78125-35.367188 0-68.617188 13.773438-93.625 38.777344 0 .003906-123.5625 123.621094-123.5625 123.621094-16.539063 16.535156-43.445313 16.535156-59.980469 0-8.011719-8.007813-12.421875-18.660156-12.421875-29.988282 0-11.328124 4.410156-21.980468 12.421875-29.988281 8.269531-8.269531 19.128906-12.402343 29.988281-12.402343s21.722656 4.136718 29.988282 12.402343l8.769531 8.769531 63.625-63.65625-8.753907-8.753906c-25.007812-25.007812-58.257812-38.78125-93.628906-38.78125-35.367187 0-68.621094 13.773438-93.628906 38.78125-25.007812 25.011719-38.78125 58.261719-38.78125 93.628906 0 35.367188 13.773438 68.621094 38.78125 93.628907 25.007812 25.007812 58.261719 38.78125 93.628906 38.78125 35.367188 0 68.617188-13.769531 93.625-38.777344 0 0 93.582032-93.625 93.582032-93.625s29.894531-29.910156 29.894531-29.910156l.085937-.085938c16.539063-16.535156 43.445313-16.535156 59.980469 0 8.011719 8.007813 12.421875 18.660157 12.421875 29.988281 0 11.328126-4.410156 21.980469-12.421875 29.988282-16.535156 16.535156-43.441406 16.535156-59.980469 0l-8.769531-8.769532-63.625 63.65625 8.757813 8.753907c25.007812 25.007812 58.257812 38.78125 93.625 38.78125 35.367187 0 68.621093-13.773438 93.628906-38.78125 25.011718-25.007813 38.785156-58.261719 38.785156-93.628907 0-35.367187-13.773438-68.617187-38.78125-93.628906zm0 0"/><path d="m264.765625 141.160156 66.199219-66.195312-74.964844-74.964844-74.964844 74.964844 74.945313 74.941406s8.765625-8.769531 8.785156-8.746094zm0 0"/><path d="m247.234375 370.796875-66.199219 66.195313 74.964844 74.960937 74.964844-74.960937-74.945313-74.945313s-8.765625 8.769531-8.785156 8.75zm0 0"/></svg>