<svg width="800" height="600" xmlns="http://www.w3.org/2000/svg">
 <!-- Created with Method Draw - http://github.com/duopixel/Method-Draw/ -->
 <g>
  <title>background</title>
  <rect fill="#fff" id="canvas_background" height="602" width="802" y="-1" x="-1"/>
  <g display="none" overflow="visible" y="0" x="0" height="100%" width="100%" id="canvasGrid">
   <rect fill="url(#gridpattern)" stroke-width="0" y="0" x="0" height="100%" width="100%"/>
  </g>
 </g>
 <g>
  <title>Layer 1</title>
  <path id="svg_2" d="m735.55345,334.77987l-27.28884,0l-22.32372,23.46853l0,28.68827l67.38743,70.8432l49.61257,-52.16132l-67.38743,-70.83869zm-33.33539,27.21754c-2.65636,-2.79258 -2.65636,-7.31756 0,-10.10563c2.65636,-2.79258 6.96061,-2.79258 9.61697,0c2.66065,2.7971 2.65636,7.31305 0,10.11015c-2.65636,2.79258 -6.96061,2.79258 -9.61697,-0.00451z" stroke-width="1.5" stroke="#000" fill="#fff"/>
  <text stroke="#000" font-style="normal" font-weight="normal" xml:space="preserve" text-anchor="start" font-family="'Great Vibes'" font-size="141" id="svg_1" y="332.00594" x="33.76574" stroke-width="2" fill="#000000">Super Shopper</text>
  <path id="svg_3" d="m513.628,374.34404l-32.85622,0l-10.14229,-32.44804l-1.42411,4.53458l-8.73014,27.91968l-32.84724,-0.00622l26.57339,20.07281l-10.16024,32.46981l26.57937,-20.07281l26.58535,20.08214l-10.16323,-32.47914l26.58535,-20.07281zm-39.4861,27.43761l-3.51539,-2.65295l-3.51539,2.65606l-11.6741,8.81412l4.45782,-14.25686l1.34632,-4.29821l-3.52138,-2.65917l-11.66812,-8.81412l18.7737,0l1.34632,-4.2951l4.45483,-14.25686l4.45483,14.24753l1.34333,4.2951l18.79165,0l-11.68607,8.82034l-3.52437,2.65606l1.34333,4.30443l4.46679,14.25686l-11.6741,-8.81723z" fill-opacity="null" stroke-opacity="null" stroke-width="1.5" stroke="#000" fill="#fff"/>
  <path id="svg_4" d="m291.628,208.34404l-32.85622,0l-10.14228,-32.44804l-1.42411,4.53458l-8.73015,27.91968l-32.84724,-0.00622l26.57339,20.07281l-10.16024,32.46982l26.57937,-20.07282l26.58536,20.08215l-10.16323,-32.47915l26.58535,-20.07281zm-39.4861,27.43761l-3.5154,-2.65294l-3.51539,2.65605l-11.6741,8.81413l4.45782,-14.25686l1.34632,-4.29821l-3.52138,-2.65916l-11.66811,-8.81413l18.7737,0l1.34632,-4.29509l4.45482,-14.25686l4.45483,14.24752l1.34333,4.2951l18.79165,0l-11.68607,8.82035l-3.52436,2.65605l1.34332,4.30443l4.4668,14.25686l-11.6741,-8.81724z" fill-opacity="null" stroke-opacity="null" stroke-width="1.5" stroke="#000" fill="#fff"/>
 </g>
</svg>